<svg width="19" height="20" viewBox="0 0 19 20" fill="none" xmlns="http://www.w3.org/2000/svg">
<path d="M2.80786 9.87179C2.80786 10.0429 2.92632 10.2469 3.16324 10.4838C3.43965 10.7471 3.82794 11.0038 4.32811 11.2538C5.01256 11.5961 5.82204 11.8626 6.75657 12.0535C7.6911 12.2443 8.67828 12.3397 9.71811 12.3397C10.7579 12.3397 11.7451 12.2443 12.6797 12.0535C13.6142 11.8626 14.4237 11.5961 15.1081 11.2538C15.6083 11.0038 15.9966 10.7471 16.273 10.4838C16.5099 10.2469 16.6284 10.0429 16.6284 9.87179V7.71974C15.7991 8.23308 14.7922 8.63453 13.6076 8.9241C12.3835 9.22684 11.087 9.37821 9.71811 9.37821C8.34922 9.37821 7.05273 9.22684 5.82862 8.9241C4.64401 8.63453 3.63709 8.23308 2.80786 7.71974V9.87179ZM16.6284 12.6556C15.7991 13.169 14.7922 13.5704 13.6076 13.86C12.3835 14.1627 11.087 14.3141 9.71811 14.3141C8.34922 14.3141 7.05273 14.1627 5.82862 13.86C4.64401 13.5704 3.63709 13.169 2.80786 12.6556V14.8077C2.80786 14.9788 2.92632 15.1828 3.16324 15.4197C3.43965 15.683 3.82794 15.9397 4.32811 16.1897C5.01256 16.532 5.82204 16.7985 6.75657 16.9894C7.6911 17.1802 8.67828 17.2756 9.71811 17.2756C10.7579 17.2756 11.7451 17.1802 12.6797 16.9894C13.6142 16.7985 14.4237 16.532 15.1081 16.1897C15.6083 15.9397 15.9966 15.683 16.273 15.4197C16.5099 15.1828 16.6284 14.9788 16.6284 14.8077V12.6556ZM0.833496 14.8077V4.9359C0.833496 4.13299 1.23495 3.38274 2.03786 2.68513C2.8276 2.02701 3.89375 1.50051 5.23632 1.10564C6.61837 0.697606 8.1123 0.493589 9.71811 0.493589C11.3239 0.493589 12.8179 0.697606 14.1999 1.10564C15.5425 1.50051 16.6086 2.02701 17.3984 2.68513C18.2013 3.38274 18.6027 4.13299 18.6027 4.9359V14.8077C18.6027 15.6106 18.2013 16.3609 17.3984 17.0585C16.6086 17.7166 15.5425 18.2431 14.1999 18.6379C12.8179 19.046 11.3239 19.25 9.71811 19.25C8.1123 19.25 6.61837 19.046 5.23632 18.6379C3.89375 18.2431 2.8276 17.7166 2.03786 17.0585C1.23495 16.3609 0.833496 15.6106 0.833496 14.8077ZM9.71811 7.40385C10.7579 7.40385 11.7451 7.30842 12.6797 7.11756C13.6142 6.92671 14.4237 6.66017 15.1081 6.31795C15.6083 6.06786 15.9966 5.8112 16.273 5.54795C16.5099 5.31103 16.6284 5.10701 16.6284 4.9359C16.6284 4.76479 16.5099 4.56077 16.273 4.32385C15.9966 4.0606 15.6083 3.80393 15.1081 3.55385C14.4237 3.21162 13.6142 2.94509 12.6797 2.75423C11.7451 2.56338 10.7579 2.46795 9.71811 2.46795C8.67828 2.46795 7.6911 2.56338 6.75657 2.75423C5.82204 2.94509 5.01256 3.21162 4.32811 3.55385C3.82794 3.80393 3.43965 4.0606 3.16324 4.32385C2.92632 4.56077 2.80786 4.76479 2.80786 4.9359C2.80786 5.10701 2.92632 5.31103 3.16324 5.54795C3.43965 5.8112 3.82794 6.06786 4.32811 6.31795C5.01256 6.66017 5.82204 6.92671 6.75657 7.11756C7.6911 7.30842 8.67828 7.40385 9.71811 7.40385Z" fill="#6366F1"/>
</svg>
