<svg width="19" height="19" viewBox="0 0 19 19" fill="none" xmlns="http://www.w3.org/2000/svg">
<path d="M0.833496 1.23064C0.833496 0.954233 0.928923 0.720602 1.11978 0.529747C1.31063 0.338892 1.54427 0.243465 1.82068 0.243465H17.6155C17.892 0.243465 18.1256 0.338892 18.3164 0.529747C18.5073 0.720602 18.6027 0.954233 18.6027 1.23064V17.0255C18.6027 17.3019 18.5073 17.5356 18.3164 17.7264C18.1256 17.9173 17.892 18.0127 17.6155 18.0127H1.82068C1.54427 18.0127 1.31063 17.9173 1.11978 17.7264C0.928923 17.5356 0.833496 17.3019 0.833496 17.0255V1.23064ZM2.80786 2.21782V16.0383H16.6284V2.21782H2.80786ZM8.3558 5.59398L13.1732 8.79244C13.2654 8.85825 13.3213 8.94381 13.3411 9.04911C13.3608 9.1544 13.3444 9.25312 13.2917 9.34526C13.2522 9.38475 13.2127 9.42423 13.1732 9.46372L8.3558 12.6622C8.26367 12.728 8.16495 12.751 8.05965 12.7313C7.95435 12.7115 7.8688 12.6556 7.80298 12.5635C7.7635 12.4977 7.74375 12.4253 7.74375 12.3463V5.90987C7.74375 5.80458 7.78324 5.71244 7.86221 5.63346C7.94119 5.55449 8.03333 5.515 8.13862 5.515C8.2176 5.515 8.28999 5.54133 8.3558 5.59398Z" fill="#6366F1"/>
</svg>
