<svg width="21" height="20" viewBox="0 0 21 20" fill="none" xmlns="http://www.w3.org/2000/svg">
<path d="M10.718 0.261398C9.37542 0.261398 8.09209 0.524645 6.86799 1.05114C5.69653 1.55131 4.65341 2.2555 3.73863 3.16371C2.82384 4.07191 2.11636 5.11832 1.61619 6.30294C1.10286 7.52704 0.846191 8.80379 0.846191 10.1332C0.846191 11.5679 1.13576 12.9302 1.71491 14.2201C2.28089 15.4705 3.07722 16.5564 4.10388 17.4778C5.13055 18.3992 6.29542 19.077 7.5985 19.5114C7.82226 19.5509 7.99008 19.518 8.10196 19.4127C8.21384 19.3074 8.26978 19.1823 8.26978 19.0376V17.2014C7.1773 17.3988 6.33491 17.333 5.7426 17.004C5.36089 16.7802 5.09106 16.4577 4.93311 16.0365C4.8673 15.8391 4.74226 15.6022 4.55799 15.3258C4.32106 14.9704 4.11046 14.74 3.92619 14.6347C3.68927 14.5163 3.54448 14.3912 3.49183 14.2596C3.41286 14.0885 3.54777 13.9996 3.89658 13.9931C4.24538 13.9865 4.57773 14.1148 4.89363 14.3781C5.10423 14.5492 5.28192 14.7598 5.4267 15.0099C5.82158 15.6548 6.34149 16.0036 6.98645 16.0563C7.42081 16.0958 7.86175 16.0168 8.30927 15.8193C8.38824 15.227 8.59884 14.7861 8.94106 14.4965C8.08551 14.4044 7.37474 14.2267 6.80876 13.9634C6.07166 13.6344 5.51226 13.1474 5.13055 12.5024C4.66987 11.7653 4.43952 10.8045 4.43952 9.61986C4.43952 8.59319 4.78175 7.71131 5.46619 6.97422C5.36089 6.71097 5.29508 6.41482 5.26876 6.08576C5.22927 5.50661 5.32799 4.92747 5.56491 4.34832L5.72286 4.32858C5.86764 4.32858 6.03217 4.34832 6.21645 4.38781C6.46653 4.44046 6.74294 4.53259 7.04568 4.66422C7.42739 4.83533 7.83542 5.06567 8.26978 5.35524C9.05952 5.14465 9.88217 5.03935 10.7377 5.03935C11.5933 5.03935 12.4159 5.14465 13.2057 5.35524C13.9954 4.82875 14.6864 4.49969 15.2788 4.36806C15.5683 4.31541 15.7855 4.30883 15.9303 4.34832C16.1541 4.92747 16.2462 5.50661 16.2067 6.08576C16.1935 6.41482 16.1343 6.71097 16.029 6.97422C16.7003 7.71131 17.0359 8.59319 17.0359 9.61986C17.0359 10.8045 16.8122 11.7719 16.3647 12.5222C15.9698 13.154 15.4038 13.6344 14.6667 13.9634C14.1007 14.2267 13.39 14.4044 12.5344 14.4965C12.7318 14.6676 12.8898 14.8914 13.0082 15.1678C13.1399 15.4969 13.2057 15.8786 13.2057 16.3129L13.1859 19.0376C13.1859 19.1955 13.2419 19.3238 13.3538 19.4226C13.4656 19.5213 13.6335 19.5509 13.8572 19.5114C15.1866 19.0639 16.3614 18.3729 17.3814 17.4383C18.4015 16.5038 19.1913 15.4047 19.7507 14.1411C20.3101 12.8776 20.5898 11.5416 20.5898 10.1332C20.5898 8.80379 20.3331 7.52704 19.8198 6.30294C19.3196 5.11832 18.6121 4.07191 17.6973 3.16371C16.7826 2.2555 15.7394 1.55131 14.568 1.05114C13.3439 0.524645 12.0606 0.261398 10.718 0.261398Z" fill="#6366F1"/>
</svg>
