<svg width="19" height="21" viewBox="0 0 19 21" fill="none" xmlns="http://www.w3.org/2000/svg">
<path d="M5.76939 2.48663C5.76939 2.84201 5.68055 3.17107 5.50285 3.47381C5.32516 3.77654 5.08495 4.01676 4.78221 4.19445C4.47948 4.37214 4.15042 4.46099 3.79503 4.46099C3.43965 4.46099 3.11059 4.37214 2.80786 4.19445C2.50512 4.01676 2.26491 3.77654 2.08721 3.47381C1.90952 3.17107 1.82068 2.84201 1.82068 2.48663C1.82068 2.13124 1.90952 1.80219 2.08721 1.49945C2.26491 1.19671 2.50512 0.956501 2.80786 0.778809C3.11059 0.601116 3.43965 0.51227 3.79503 0.51227C4.15042 0.51227 4.47948 0.601116 4.78221 0.778809C5.08495 0.956501 5.32516 1.19671 5.50285 1.49945C5.68055 1.80219 5.76939 2.13124 5.76939 2.48663ZM2.80786 14.3328V20.2559H0.833496V8.40971C0.833496 7.87005 0.96512 7.37317 1.22837 6.91906C1.49162 6.46496 1.85029 6.10629 2.30439 5.84304C2.7585 5.57979 3.25538 5.44817 3.79503 5.44817C4.18991 5.44817 4.56833 5.52385 4.93029 5.67522C5.29226 5.82659 5.60486 6.03389 5.86811 6.29714L8.2176 8.50842L10.5079 6.23791L11.8899 7.61996L8.25709 11.2725L6.75657 9.85099V20.2559H4.78221V14.3328H2.80786ZM3.79503 7.42253C3.51862 7.42253 3.28499 7.51795 3.09414 7.70881C2.90328 7.89966 2.80786 8.1333 2.80786 8.40971V12.3584H4.78221V8.40971C4.78221 8.1333 4.68679 7.89966 4.49593 7.70881C4.30508 7.51795 4.07144 7.42253 3.79503 7.42253ZM16.6284 3.47381H7.74375V1.49945H17.6155C17.892 1.49945 18.1256 1.59488 18.3164 1.78573C18.5073 1.97659 18.6027 2.21022 18.6027 2.48663V13.3456C18.6027 13.622 18.5073 13.8556 18.3164 14.0465C18.1256 14.2374 17.892 14.3328 17.6155 14.3328H14.2394L17.0232 20.2559H14.8317L12.0479 14.3328H7.74375V12.3584H16.6284V3.47381Z" fill="#6366F1"/>
</svg>
