<svg width="23" height="21" viewBox="0 0 23 21" fill="none" xmlns="http://www.w3.org/2000/svg">
<path d="M19.6153 0.769106C20.155 0.769106 20.6518 0.90073 21.1059 1.16398C21.56 1.42723 21.9187 1.7859 22.182 2.24C22.4452 2.69411 22.5768 3.19099 22.5768 3.73064V5.705H20.6025V17.5512C20.6025 18.0908 20.4709 18.5877 20.2076 19.0418C19.9444 19.4959 19.5857 19.8546 19.1316 20.1178C18.6775 20.3811 18.1806 20.5127 17.6409 20.5127H3.82043C3.28077 20.5127 2.78389 20.3811 2.32978 20.1178C1.87568 19.8546 1.51701 19.4959 1.25376 19.0418C0.990511 18.5877 0.858887 18.0908 0.858887 17.5512V15.5768H16.6538V17.5512C16.6538 17.8012 16.736 18.0184 16.9006 18.2027C17.0651 18.387 17.2724 18.4988 17.5225 18.5383H17.6409C17.891 18.5383 18.1082 18.4561 18.2925 18.2915C18.4767 18.127 18.5886 17.9197 18.6281 17.6696V17.5512V2.74347H5.79478C5.5447 2.74347 5.32752 2.82573 5.14325 2.99026C4.95897 3.15479 4.84709 3.3621 4.8076 3.61218V3.73064V13.6024H2.83325V3.73064C2.83325 3.19099 2.96487 2.69411 3.22812 2.24C3.49137 1.7859 3.85004 1.42723 4.30414 1.16398C4.75825 0.90073 5.25513 0.769106 5.79478 0.769106H19.6153Z" fill="#6366F1"/>
</svg>
